<svg width="12" height="9" viewBox="0 0 12 9" fill="none" xmlns="http://www.w3.org/2000/svg">
<g opacity="0.8">
<path d="M10.4319 9.00014C10.6894 9.00014 10.9125 8.91512 11.1022 8.74725L7.8569 5.50185C7.77904 5.55761 7.70357 5.61182 7.63228 5.66338C7.38941 5.84231 7.1923 5.98194 7.04095 6.08199C6.88961 6.18227 6.68826 6.28449 6.43691 6.38884C6.1854 6.49332 5.95109 6.5454 5.73372 6.5454H5.72736H5.72099C5.50361 6.5454 5.26929 6.49334 5.0178 6.38884C4.76631 6.28449 4.56496 6.18227 4.41376 6.08199C4.26243 5.98194 4.06542 5.84233 3.82244 5.66338C3.75472 5.61374 3.67963 5.55927 3.59844 5.50098L0.352539 8.74725C0.542182 8.91512 0.765433 9.00014 1.02289 9.00014H10.4319Z" fill="white"/>
<path d="M0.645669 3.45755C0.402828 3.29565 0.187481 3.11023 0 2.90137V7.83898L2.86037 4.97861C2.28814 4.57911 1.55084 4.07267 0.645669 3.45755Z" fill="white"/>
<path d="M10.8157 3.45755C9.94509 4.04684 9.2051 4.55415 8.5957 4.97975L11.4549 7.8391V2.90137C11.2716 3.10603 11.0586 3.29132 10.8157 3.45755Z" fill="white"/>
<path d="M10.4317 0H1.02267C0.694416 0 0.442051 0.110845 0.26526 0.332307C0.0883228 0.553873 0 0.830966 0 1.16327C0 1.43169 0.117209 1.72253 0.351523 2.03587C0.585838 2.34909 0.835167 2.59511 1.09939 2.77407C1.24423 2.87641 1.68104 3.18008 2.40982 3.68498C2.80322 3.9576 3.14535 4.19522 3.43935 4.40027C3.68995 4.57488 3.90606 4.72609 4.0845 4.85158C4.10498 4.86595 4.1372 4.88899 4.17995 4.91956C4.22602 4.95265 4.28431 4.99464 4.35623 5.04656C4.49471 5.14672 4.60976 5.22768 4.70138 5.28953C4.79289 5.3514 4.90376 5.42051 5.03382 5.49725C5.16377 5.57388 5.28635 5.63151 5.40139 5.66984C5.51646 5.70814 5.62298 5.72736 5.72097 5.72736H5.72734H5.7337C5.83167 5.72736 5.93822 5.70814 6.0533 5.66984C6.16833 5.63151 6.2908 5.57401 6.42086 5.49725C6.5508 5.42051 6.66152 5.35125 6.75331 5.28953C6.84494 5.22768 6.95999 5.14674 7.09849 5.04656C7.17026 4.99464 7.22856 4.95263 7.27462 4.91966C7.3174 4.88897 7.34959 4.86607 7.3702 4.85158C7.5092 4.75485 7.72582 4.60426 8.01706 4.40204C8.54699 4.03384 9.32744 3.4919 10.3617 2.77407C10.6727 2.55681 10.9326 2.29462 11.1415 1.9879C11.35 1.68117 11.4545 1.35943 11.4545 1.02277C11.4545 0.7415 11.3532 0.500822 11.1509 0.300364C10.9484 0.100156 10.7087 0 10.4317 0Z" fill="white"/>
</g>
</svg>
