<svg width="11" height="11" viewBox="0 0 11 11" fill="none" xmlns="http://www.w3.org/2000/svg">
<path d="M9.12307 6.93849C8.73102 6.55144 8.2416 6.55144 7.85205 6.93849C7.5549 7.23315 7.25774 7.52781 6.96558 7.82746C6.88568 7.90986 6.81825 7.92734 6.72087 7.8724C6.52859 7.76753 6.32383 7.68262 6.13905 7.56776C5.27755 7.02589 4.55589 6.3292 3.91664 5.54512C3.59951 5.15557 3.31734 4.73856 3.12007 4.26911C3.08011 4.17422 3.08761 4.11179 3.16502 4.03438C3.46217 3.74721 3.75183 3.45256 4.04399 3.1579C4.45102 2.74838 4.45102 2.26894 4.04149 1.85692C3.80926 1.62219 3.57703 1.39246 3.34481 1.15773C3.10509 0.918014 2.86786 0.675797 2.62564 0.438573C2.2336 0.0565187 1.74417 0.0565188 1.35463 0.44107C1.05498 0.735727 0.767811 1.03787 0.463166 1.32754C0.180996 1.59472 0.0386615 1.92184 0.00869642 2.3039C-0.0387482 2.92567 0.113574 3.51249 0.328324 4.08432C0.767811 5.26794 1.43703 6.31921 2.24858 7.28309C3.34481 8.58657 4.65328 9.61787 6.184 10.362C6.87319 10.6966 7.58736 10.9538 8.36395 10.9963C8.89833 11.0262 9.36279 10.8914 9.73485 10.4744C9.98956 10.1897 10.2767 9.93 10.5464 9.65782C10.9459 9.25329 10.9484 8.76386 10.5514 8.36433C10.077 7.88739 9.60001 7.41294 9.12307 6.93849Z" fill="white"/>
</svg>
