<svg width="13" height="14" viewBox="0 0 13 14" fill="none" xmlns="http://www.w3.org/2000/svg">
<path d="M11.1214 11.7094V2.41075H12.2408C12.423 2.41075 12.572 2.2816 12.572 2.12376C12.572 1.96591 12.423 1.83676 12.2408 1.83676H9.03489V1.14798C9.03489 0.513719 8.44868 0 7.71675 0H4.85195C4.12333 0 3.53712 0.513719 3.53712 1.14798V1.83676H0.331191C0.149036 1.83676 0 1.96591 0 2.12376C0 2.2816 0.149036 2.41075 0.331191 2.41075H1.45062V11.7094C1.45062 12.5015 2.17592 13.1443 3.09001 13.1443H9.48199C10.3961 13.1443 11.1214 12.5015 11.1214 11.7094ZM8.3725 1.83676H4.1995V1.14798C4.1995 0.832283 4.48764 0.573988 4.85526 0.573988H7.72006C8.08437 0.573988 8.37582 0.832283 8.37582 1.14798V1.83676H8.3725Z" fill="#989898"/>
</svg>
